# xmcd
#
# Track frame offsets: 
#        150
#        23365
#        37635
#        53585
#        71612
#        83557
#        97385
#        120830
#        136917
#        152395
#
# Disc length: 2231 seconds
#
# Revision: 0
# Processed by: cddbd v1.5.2PL0 Copyright (c) Steve Scherf et al.
# Submitted via: ExactAudioCopy v0.95b3
#
DISCID=6508b50a
DTITLE=Phil Pritchett - Heritage Way
DYEAR=2000
DGENRE=Country
TTITLE0=Summertime
TTITLE1=Nowhere
TTITLE2=Julianne Part II
TTITLE3=Song for Keeps
TTITLE4=Life of Paul
TTITLE5=Guardian Angel
TTITLE6=Beautiful Day
TTITLE7=Feeling Port Aransas
TTITLE8=Stumbling Free
TTITLE9=Long Way Gone
EXTD=
EXTT0=
EXTT1=
EXTT2=
EXTT3=
EXTT4=
EXTT5=
EXTT6=
EXTT7=
EXTT8=
EXTT9=
PLAYORDER=
